<mxfile host="app.diagrams.net" modified="2024-04-30T08:18:26.027Z" agent="Mozilla/5.0 (Windows NT 10.0; Win64; x64) AppleWebKit/537.36 (KHTML, like Gecko) Chrome/124.0.0.0 Safari/537.36" version="24.3.1" etag="VR0IZN5hFg4vjuwkcWim" type="github">
  <diagram name="페이지-1" id="JFRmReEqk2YSzNp28OUZ">
    <mxGraphModel>
      <root>
        <mxCell id="0" />
        <mxCell id="1" parent="0" />
      </root>
    </mxGraphModel>
  </diagram>
</mxfile>
